<svg aria-hidden="true" style="position: absolute; width: 0; height: 0; overflow: hidden;" version="1.1" xmlns="http://www.w3.org/2000/svg" xmlns:xlink="http://www.w3.org/1999/xlink">
<defs>
<symbol id="icon-Vector-23" viewBox="0 0 25 20">
<path fill="#f4f4fd" style="fill: var(--color1, #f4f4fd)" d="M21.115 0.637c0.412-0.398 0.974-0.644 1.593-0.644 1.254 0 2.273 1.007 2.292 2.257l0 0.002c0 0.018 0.001 0.038 0.001 0.059 0 0.603-0.23 1.152-0.607 1.565l0.002-0.002-12.235 15.385c-0.421 0.455-1.022 0.739-1.689 0.739-0.309 0-0.604-0.061-0.874-0.172l0.015 0.006c-0.298-0.123-0.552-0.296-0.765-0.51l-0-0-8.115-8.157c-0.453-0.423-0.735-1.024-0.735-1.691 0-0.313 0.062-0.612 0.175-0.885l-0.006 0.015c0.352-0.855 1.179-1.445 2.144-1.445 0.011 0 0.022 0 0.033 0l-0.002-0c0.649 0.012 1.23 0.292 1.639 0.734l0.001 0.001 6.422 6.455 10.65-13.645c0.020-0.024 0.041-0.046 0.062-0.067l-0.002-0z"></path>
</symbol>
<symbol id="icon-email" viewBox="0 0 24 32">
<path d="M20 8h-16c-1.1 0-1.989 0.9-1.989 2l-0.011 12c0 1.1 0.9 2 2 2h16c1.1 0 2-0.9 2-2v-12c0-1.1-0.9-2-2-2zM19.6 12.251l-7.069 4.419c-0.151 0.094-0.334 0.15-0.531 0.15s-0.38-0.056-0.535-0.153l0.004 0.002-7.069-4.419c-0.252-0.15-0.418-0.422-0.418-0.731 0-0.469 0.38-0.849 0.849-0.849 0.174 0 0.337 0.053 0.471 0.143l6.697 4.187 6.7-4.191c0.132-0.088 0.294-0.141 0.468-0.141 0.469 0 0.849 0.38 0.849 0.849 0 0.31-0.166 0.581-0.414 0.729l-0.004 0.002z"></path>
</symbol>
</defs>
</svg>
